<?xml version="1.0" encoding="UTF-8" standalone="no"?>
<!-- Created with Inkscape (http://www.inkscape.org/) -->

<svg
   width="210mm"
   height="297mm"
   viewBox="0 0 210 297"
   version="1.1"
   id="svg5"
   inkscape:version="1.2 (dc2aedaf03, 2022-05-15)"
   sodipodi:docname="shape-functions.svg"
   inkscape:export-filename="shape-functions.png"
   inkscape:export-xdpi="90"
   inkscape:export-ydpi="90"
   xmlns:inkscape="http://www.inkscape.org/namespaces/inkscape"
   xmlns:sodipodi="http://sodipodi.sourceforge.net/DTD/sodipodi-0.dtd"
   xmlns="http://www.w3.org/2000/svg"
   xmlns:svg="http://www.w3.org/2000/svg">
  <sodipodi:namedview
     id="namedview7"
     pagecolor="#ffffff"
     bordercolor="#666666"
     borderopacity="1.0"
     inkscape:showpageshadow="2"
     inkscape:pageopacity="0.0"
     inkscape:pagecheckerboard="0"
     inkscape:deskcolor="#d1d1d1"
     inkscape:document-units="mm"
     showgrid="false"
     inkscape:zoom="1.4699074"
     inkscape:cx="398.32441"
     inkscape:cy="363.9685"
     inkscape:window-width="1920"
     inkscape:window-height="1005"
     inkscape:window-x="0"
     inkscape:window-y="0"
     inkscape:window-maximized="1"
     inkscape:current-layer="layer1" />
  <defs
     id="defs2" />
  <g
     inkscape:label="Layer 1"
     inkscape:groupmode="layer"
     id="layer1">
    <path
       style="fill:none;stroke:#000000;stroke-width:0.264583px;stroke-linecap:butt;stroke-linejoin:miter;stroke-opacity:1"
       d="M 44.115929,91.757911 92.930339,111.49951 134.16159,84.239438 87.796713,67.106457 Z"
       id="path186"
       sodipodi:nodetypes="ccccc" />
    <ellipse
       style="opacity:0.5;fill:#00ff00;stroke:#000000;stroke-width:0.465;stroke-linecap:round;stroke-linejoin:bevel;stroke-dasharray:3.71999, 0.465;paint-order:fill markers stroke"
       id="path357"
       cx="88.566498"
       cy="75.821686"
       rx="1.62518"
       ry="1.0796868" />
    <ellipse
       style="opacity:0.5;fill:#00ff00;stroke:#000000;stroke-width:0.465;stroke-linecap:round;stroke-linejoin:bevel;stroke-dasharray:3.71999, 0.465;paint-order:fill markers stroke"
       id="path357-3"
       cx="80.705078"
       cy="79.911118"
       rx="1.62518"
       ry="1.0796868" />
    <ellipse
       style="opacity:0.5;fill:#00ff00;stroke:#000000;stroke-width:0.465;stroke-linecap:round;stroke-linejoin:bevel;stroke-dasharray:3.71999, 0.465;paint-order:fill markers stroke"
       id="path357-3-6"
       cx="68.50705"
       cy="87.056686"
       rx="1.62518"
       ry="1.0796868" />
    <ellipse
       style="opacity:0.5;fill:#00ff00;stroke:#000000;stroke-width:0.465;stroke-linecap:round;stroke-linejoin:bevel;stroke-dasharray:3.71999, 0.465;paint-order:fill markers stroke"
       id="path357-3-6-7"
       cx="59.460922"
       cy="91.195625"
       rx="1.62518"
       ry="1.0796868" />
    <ellipse
       style="opacity:0.5;fill:#00ff00;stroke:#000000;stroke-width:0.465;stroke-linecap:round;stroke-linejoin:bevel;stroke-dasharray:3.71999, 0.465;paint-order:fill markers stroke"
       id="path357-3-6-5"
       cx="68.258179"
       cy="94.909317"
       rx="1.62518"
       ry="1.0796868" />
    <ellipse
       style="opacity:0.5;fill:#00ff00;stroke:#000000;stroke-width:0.465;stroke-linecap:round;stroke-linejoin:bevel;stroke-dasharray:3.71999, 0.465;paint-order:fill markers stroke"
       id="path357-3-6-3"
       cx="75.599915"
       cy="90.360001"
       rx="1.62518"
       ry="1.0796868" />
    <ellipse
       style="opacity:0.5;fill:#00ff00;stroke:#000000;stroke-width:0.465;stroke-linecap:round;stroke-linejoin:bevel;stroke-dasharray:3.71999, 0.465;paint-order:fill markers stroke"
       id="path357-3-6-56"
       cx="88.72908"
       cy="83.339996"
       rx="1.62518"
       ry="1.0796868" />
    <ellipse
       style="opacity:0.5;fill:#00ff00;stroke:#000000;stroke-width:0.465;stroke-linecap:round;stroke-linejoin:bevel;stroke-dasharray:3.71999, 0.465;paint-order:fill markers stroke"
       id="path357-3-6-2"
       cx="95.950745"
       cy="78.82917"
       rx="1.62518"
       ry="1.0796868" />
    <ellipse
       style="opacity:0.5;fill:#00ff00;stroke:#000000;stroke-width:0.465;stroke-linecap:round;stroke-linejoin:bevel;stroke-dasharray:3.71999, 0.465;paint-order:fill markers stroke"
       id="path357-3-6-9"
       cx="111.77991"
       cy="83.339996"
       rx="1.62518"
       ry="1.0796868" />
    <ellipse
       style="opacity:0.5;fill:#00ff00;stroke:#000000;stroke-width:0.465;stroke-linecap:round;stroke-linejoin:bevel;stroke-dasharray:3.71999, 0.465;paint-order:fill markers stroke"
       id="path357-3-6-1"
       cx="119.87991"
       cy="86.580002"
       rx="1.62518"
       ry="1.0796868" />
    <ellipse
       style="opacity:0.5;fill:#00ff00;stroke:#000000;stroke-width:0.465;stroke-linecap:round;stroke-linejoin:bevel;stroke-dasharray:3.71999, 0.465;paint-order:fill markers stroke"
       id="path357-3-6-27"
       cx="104.57992"
       cy="88.559998"
       rx="1.62518"
       ry="1.0796868" />
    <ellipse
       style="opacity:0.5;fill:#00ff00;stroke:#000000;stroke-width:0.465;stroke-linecap:round;stroke-linejoin:bevel;stroke-dasharray:3.71999, 0.465;paint-order:fill markers stroke"
       id="path357-3-6-0"
       cx="111.95992"
       cy="91.260002"
       rx="1.62518"
       ry="1.0796868" />
    <ellipse
       style="opacity:0.5;fill:#00ff00;stroke:#000000;stroke-width:0.465;stroke-linecap:round;stroke-linejoin:bevel;stroke-dasharray:3.71999, 0.465;paint-order:fill markers stroke"
       id="path357-3-6-93"
       cx="91.756584"
       cy="96.85083"
       rx="1.62518"
       ry="1.0796868" />
    <ellipse
       style="opacity:0.5;fill:#00ff00;stroke:#000000;stroke-width:0.465;stroke-linecap:round;stroke-linejoin:bevel;stroke-dasharray:3.71999, 0.465;paint-order:fill markers stroke"
       id="path357-3-6-6"
       cx="100.21658"
       cy="100.46166"
       rx="1.62518"
       ry="1.0796868" />
    <ellipse
       style="opacity:0.5;fill:#00ff00;stroke:#000000;stroke-width:0.465;stroke-linecap:round;stroke-linejoin:bevel;stroke-dasharray:3.71999, 0.465;paint-order:fill markers stroke"
       id="path357-3-6-06"
       cx="84.196587"
       cy="101.71083"
       rx="1.62518"
       ry="1.0796868" />
    <ellipse
       style="opacity:0.5;fill:#00ff00;stroke:#000000;stroke-width:0.465;stroke-linecap:round;stroke-linejoin:bevel;stroke-dasharray:3.71999, 0.465;paint-order:fill markers stroke"
       id="path357-3-6-26"
       cx="93.04908"
       cy="105.49083"
       rx="1.62518"
       ry="1.0796868" />
    <path
       style="fill:none;stroke:#000000;stroke-width:0.264583px;stroke-linecap:butt;stroke-linejoin:miter;stroke-opacity:1"
       d="M 68.145511,94.879016 V 71.887918"
       id="path910" />
    <path
       style="fill:none;stroke:#000000;stroke-width:0.264583px;stroke-linecap:butt;stroke-linejoin:miter;stroke-opacity:1"
       d="m 44.22436,84.706237 c 6.537783,10.935493 13.280147,16.773123 19.631864,17.328503 14.984155,3.78184 28.539822,-3.699295 28.980537,-3.140131 1.5279,1.748781 22.616979,11.424441 29.567459,1.323441 C 129.3547,90.117054 134.4629,76.027714 134.4629,76.027714 105.26343,74.600766 103.30793,72.671755 87.511421,58.981899 80.11184,69.956134 68.290403,69.317617 62.636305,71.872834 56.188842,74.786591 48.58922,81.253704 44.22436,84.706237 Z"
       id="path977"
       sodipodi:nodetypes="cccsccsc" />
    <path
       style="fill:none;stroke:#000000;stroke-width:0.264583px;stroke-linecap:butt;stroke-linejoin:miter;stroke-opacity:1"
       d="M 54.932876,97.994453 C 62.72167,50.70891 80.112952,84.596609 103.25878,70.81581"
       id="path979"
       sodipodi:nodetypes="cc" />
    <path
       style="fill:none;stroke:#000000;stroke-width:0.264583px;stroke-linecap:butt;stroke-linejoin:miter;stroke-opacity:1"
       d="M 57.447752,74.907751 C 75.830576,63.889594 86.045497,87.232263 101.48532,102.78719"
       id="path981"
       sodipodi:nodetypes="cc" />
    <path
       style="opacity:0.5;fill:#00ffff;stroke:none;stroke-width:1.19564;stroke-linecap:round;stroke-linejoin:bevel;stroke-dasharray:9.56512, 1.19564;paint-order:fill markers stroke"
       d="m 178.43521,335.90768 c -3.88446,-5.139 -10.14805,-15.68478 -9.54819,-16.07593 0.35753,-0.23313 6.22521,-4.86293 13.0393,-10.28844 18.96528,-15.10053 31.9328,-24.11355 41.23161,-28.65786 8.65664,-4.23048 19.2312,-7.39884 24.69401,-7.39884 h 3.10423 l -4.04186,2.42033 c -9.99271,5.98376 -18.02474,17.03583 -25.16294,34.62418 l -2.19558,5.40986 -14.8635,8.40698 c -8.17492,4.62383 -17.05065,9.61431 -19.72384,11.08994 l -4.86034,2.68297 z"
       id="path1266"
       transform="scale(0.26458333)" />
    <path
       style="opacity:0.5;fill:#00ffff;stroke:none;stroke-width:1.19564;stroke-linecap:round;stroke-linejoin:bevel;stroke-dasharray:9.56512, 1.19564;paint-order:fill markers stroke"
       d="m 201.71339,360.0678 c -3.18048,-1.29224 -6.19482,-2.68894 -6.69854,-3.10377 -2.3743,-1.95534 -13.81133,-16.97118 -13.28623,-17.44369 1.72167,-1.54926 37.0625,-20.93563 36.76852,-20.16954 -1.84518,4.80847 -6.59299,23.66304 -8.6656,34.41298 -0.82962,4.30299 -1.6945,8.01035 -1.92194,8.23858 -0.22745,0.22823 -3.01574,-0.64233 -6.19621,-1.93456 z"
       id="path1268"
       transform="scale(0.26458333)" />
    <path
       style="opacity:0.5;fill:#00ffff;stroke:none;stroke-width:1.19564;stroke-linecap:round;stroke-linejoin:bevel;stroke-dasharray:9.56512, 1.19564;paint-order:fill markers stroke"
       d="m 257.06019,387.74229 c -8.6134,-1.12288 -25.231,-4.74636 -29.24232,-6.3763 -4.85658,-1.9734 -11.48764,-5.7556 -16.08888,-9.17669 -2.94537,-2.18993 -3.20935,-2.60943 -2.81186,-4.46841 0.24126,-1.12838 0.53983,-2.16301 0.66347,-2.29919 0.21603,-0.23792 56.12582,22.20815 56.70601,22.76573 0.42544,0.40885 -4.49757,0.17133 -9.22642,-0.44514 z"
       id="path1270"
       transform="scale(0.26458333)" />
    <path
       style="opacity:0.5;fill:#00ffff;stroke:none;stroke-width:1.19564;stroke-linecap:round;stroke-linejoin:bevel;stroke-dasharray:9.56512, 1.19564;paint-order:fill markers stroke"
       d="m 202.70828,364.55123 c -1.8568,-1.92454 -2.91678,-3.33577 -2.35552,-3.13606 1.72042,0.61215 7.13087,2.76547 7.34649,2.92385 0.37877,0.27821 -0.68771,3.71137 -1.15291,3.71137 -0.25413,0 -1.98126,-1.57462 -3.83806,-3.49916 z"
       id="path1274"
       transform="scale(0.26458333)" />
    <path
       style="opacity:0.5;fill:#00ffff;stroke:none;stroke-width:1.19564;stroke-linecap:round;stroke-linejoin:bevel;stroke-dasharray:9.56512, 1.19564;paint-order:fill markers stroke"
       d="m 242.04461,376.33519 c -17.29311,-7.02631 -31.63693,-12.97003 -31.87517,-13.20827 -0.67437,-0.67437 4.26507,-23.50463 7.60966,-35.17209 1.65575,-5.77603 3.08084,-10.56247 3.16686,-10.63654 0.41322,-0.3558 35.40039,-20.02065 35.62021,-20.02065 0.139,0 0.25273,5.97734 0.25273,13.28298 v 13.28298 l -1.66521,0.63311 c -0.91586,0.34821 -2.17682,1.41394 -2.80213,2.36828 -1.4969,2.28456 -0.32813,5.34838 2.48475,6.51352 l 1.98259,0.82121 v 9.69699 9.69699 l -2.01007,0.40201 c -4.37612,0.87523 -5.29519,6.53814 -1.43152,8.82046 3.77624,2.23069 10.31651,0.84159 11.55857,-2.45494 1.07257,-2.84672 -1.96952,-6.59745 -5.351,-6.59745 -1.35565,0 -1.40535,-0.3489 -1.40535,-9.86457 v -9.86456 h 1.73457 c 3.53464,0 6.42921,-2.36566 6.42921,-5.25443 0,-1.82013 -3.86768,-4.9503 -6.11665,-4.9503 h -2.04713 v -13.80288 -13.80288 l 12.31217,-6.92258 12.31217,-6.92259 4.96607,3.35108 c 2.73134,1.84309 6.99362,5.07115 9.47171,7.17348 l 4.50564,3.8224 -2.05475,1.91942 c -2.47651,2.31342 -2.60764,4.28405 -0.42997,6.46173 2.14854,2.14853 5.90992,2.81933 9.06834,1.61722 l 2.4709,-0.94043 4.48644,4.77105 c 6.00231,6.38307 13.57375,15.30621 28.58186,33.68443 6.87507,8.4189 15.99658,19.37972 20.27,24.35737 4.69373,5.46722 7.62352,9.43167 7.40021,10.0136 -0.42301,1.10235 1.08609,4.33451 2.41817,5.17921 0.69247,0.43911 0.70051,0.56993 0.0355,0.57799 -1.51638,0.0184 -15.329,-6.44214 -19.54991,-9.14401 l -4.08189,-2.61286 -12.50464,4.26314 -12.50464,4.26314 -3.53595,-1.20191 c -3.15354,-1.07192 -3.86127,-1.099 -6.54417,-0.25036 -2.28541,0.7229 -3.23668,1.47027 -3.95896,3.11032 -0.89616,2.03491 -1.28656,2.21942 -6.80315,3.21544 -7.01167,1.26595 -15.76965,2.24165 -24.56109,2.73625 l -6.46299,0.3636 z m 110.49011,-7.04777 c 2.01737,-1.89522 1.99649,-4.27318 -0.0556,-6.32522 -3.26735,-3.26735 -10.70366,-2.61277 -12.48253,1.09877 -1.10362,2.30266 0.28565,5.29742 3.03692,6.54654 2.6148,1.18715 7.56435,0.49946 9.50117,-1.32009 z M 230.33895,347.69328 c 2.3987,-2.3987 2.45465,-3.20319 0.40129,-5.76935 -1.31912,-1.64855 -2.20292,-2.0269 -5.34305,-2.2873 -3.42883,-0.28435 -3.96313,-0.13273 -6.02529,1.70981 -2.0864,1.8642 -2.21144,2.20098 -1.60382,4.31961 0.80939,2.82219 2.94165,3.99251 7.29843,4.00581 2.72973,0.008 3.61937,-0.32552 5.27244,-1.97858 z m 60.99829,-2.9262 c 4.22574,-3.96987 -0.91412,-9.56934 -7.62777,-8.30985 -3.57423,0.67053 -5.34763,2.71733 -4.87544,5.62709 0.3804,2.34413 1.34799,3.34662 4.17699,4.32769 2.23993,0.77678 6.68271,-0.10093 8.32622,-1.64493 z"
       id="path1276"
       transform="scale(0.26458333)" />
    <path
       style="opacity:0.5;fill:#00ffff;stroke:none;stroke-width:1.19564;stroke-linecap:round;stroke-linejoin:bevel;stroke-dasharray:9.56512, 1.19564;paint-order:fill markers stroke"
       d="m 222.80315,312.97783 c 0,-0.35605 1.10725,-3.18786 2.46055,-6.29291 7.15993,-16.42791 17.10501,-27.70212 28.13238,-31.89219 l 3.42282,-1.30057 v 10.71607 10.71608 l -16.58128,9.35044 c -9.1197,5.14275 -16.77325,9.35045 -17.00787,9.35045 -0.23463,0 -0.4266,-0.29132 -0.4266,-0.64737 z"
       id="path1278"
       transform="scale(0.26458333)" />
    <path
       style="opacity:0.5;fill:#00ffff;stroke:none;stroke-width:1.19564;stroke-linecap:round;stroke-linejoin:bevel;stroke-dasharray:9.56512, 1.19564;paint-order:fill markers stroke"
       d="m 236.40945,272.79344 c 1.84017,-1.2124 11.47265,-4.03431 24.38645,-7.1442 22.15157,-5.33453 34.8437,-10.21436 46.17234,-17.75218 6.72852,-4.477 17.05142,-14.11754 20.94357,-19.55918 1.49669,-2.09253 2.87433,-3.80412 3.06142,-3.80353 0.18709,5.9e-4 2.63622,2.01704 5.44252,4.48101 18.71525,16.43225 34.93826,29.04972 45.0363,35.02706 3.29302,1.94924 5.98732,3.74341 5.98732,3.98703 0,0.58199 -4.53671,2.7359 -5.76253,2.7359 -0.52478,0 -11.70803,-3.97984 -24.85164,-8.84409 -13.14362,-4.86425 -24.34131,-8.84409 -24.88377,-8.84409 -0.54245,0 -9.10803,4.58469 -19.03462,10.1882 l -18.04834,10.1882 -7.96467,-1.37413 c -4.38057,-0.75577 -11.17915,-1.43534 -15.10797,-1.51015 -8.53665,-0.16255 -28.62724,1.23021 -31.97031,2.2163 -1.30714,0.38556 -2.83785,0.69634 -3.40158,0.69061 -0.91006,-0.009 -0.91056,-0.0858 -0.004,-0.68276 z"
       id="path1280"
       transform="scale(0.26458333)" />
    <path
       style="opacity:0.5;fill:#00ffff;stroke:none;stroke-width:1.19564;stroke-linecap:round;stroke-linejoin:bevel;stroke-dasharray:9.56512, 1.19564;paint-order:fill markers stroke"
       d="m 258.17953,283.7172 v -10.29224 l 2.55118,0.46259 c 5.63008,1.02088 19.89921,6.28303 19.89921,7.33842 0,0.26368 -20.26401,11.88224 -21.90025,12.55671 -0.30258,0.12472 -0.55014,-4.40474 -0.55014,-10.06548 z"
       id="path1282"
       transform="scale(0.26458333)" />
    <path
       style="opacity:0.5;fill:#00ffff;stroke:none;stroke-width:1.19564;stroke-linecap:round;stroke-linejoin:bevel;stroke-dasharray:9.56512, 1.19564;paint-order:fill markers stroke"
       d="m 280.95017,279.349 c -2.1364,-1.49639 -9.78991,-4.60111 -14.60686,-5.92542 l -4.42205,-1.21573 7.01642,-0.0409 c 6.86965,-0.0401 21.00823,1.67282 22.11676,2.67946 0.43661,0.39648 -7.45615,5.44338 -8.51282,5.44338 -0.13658,0 -0.85273,-0.42334 -1.59145,-0.94076 z"
       id="path1284"
       transform="scale(0.26458333)" />
    <path
       style="opacity:0.5;fill:#00ffff;stroke:none;stroke-width:1.19564;stroke-linecap:round;stroke-linejoin:bevel;stroke-dasharray:9.56512, 1.19564;paint-order:fill markers stroke"
       d="m 325.19055,279.22398 c -6.51114,-0.88585 -23.8246,-4.03819 -26.40288,-4.80729 -0.84703,-0.25266 4.03561,-3.35224 15.64724,-9.9331 9.28316,-5.2612 17.18462,-9.57074 17.55879,-9.57676 1.19915,-0.0193 46.5853,16.8614 46.59359,17.32976 0.009,0.53454 -7.62228,3.45819 -12.918,4.94876 -10.73107,3.02044 -27.17511,3.84861 -40.47874,2.03863 z"
       id="path1286"
       transform="scale(0.26458333)" />
    <path
       style="opacity:0.5;fill:#00ffff;stroke:none;stroke-width:1.19564;stroke-linecap:round;stroke-linejoin:bevel;stroke-dasharray:9.56512, 1.19564;paint-order:fill markers stroke"
       d="m 389.2293,389.7259 c -3.06472,-0.90397 -5.21331,-2.00295 -6.24274,-3.19308 -1.00267,-1.15919 -1.28062,-1.90742 -0.76946,-2.07138 1.64824,-0.52867 3.86164,-3.09235 3.86164,-4.47275 0,-2.18938 -1.78995,-4.26647 -4.42651,-5.13662 -2.39425,-0.79017 -6.10377,-0.40008 -7.59491,0.79869 -0.9692,0.77916 -7.4711,-6.56923 -27.65242,-31.25253 -17.09121,-20.90386 -24.4343,-29.55379 -30.28647,-35.67654 -2.97202,-3.10943 -4.22813,-4.91137 -3.94251,-5.65569 1.00692,-2.624 -3.05757,-6.44868 -6.85303,-6.44868 -0.52577,0 -3.10613,-1.8506 -5.73413,-4.11244 -2.62799,-2.26185 -7.04351,-5.68732 -9.81225,-7.61216 -2.76874,-1.92485 -4.96443,-3.56796 -4.87931,-3.65137 0.0851,-0.0834 2.39093,-1.41789 5.12401,-2.96549 l 4.96925,-2.81384 10.33784,2.07307 c 8.50293,1.7051 22.89651,4.05109 25.17263,4.10284 0.30149,0.007 -0.27851,0.72354 -1.28889,1.59264 -1.59836,1.37485 -1.77612,1.90503 -1.36806,4.0802 0.54762,2.91903 3.00506,4.54435 6.87098,4.54435 6.21034,0 9.25723,-4.75108 5.47344,-8.53486 l -1.66986,-1.66987 h 6.68311 c 10.16652,0 21.02639,-2.24465 33.07591,-6.83652 l 4.10432,-1.56409 56.35614,20.83716 c 30.99589,11.46043 56.49909,20.98009 56.6738,21.1548 0.1747,0.1747 -1.01047,3.2648 -2.63371,6.86689 l -2.95134,6.54924 -46.87211,31.01142 c -25.77967,17.05628 -47.36266,31.10673 -47.96221,31.22321 -0.59955,0.11648 -3.19297,-0.40848 -5.76315,-1.1666 z m 39.53156,-41.55724 c 4.22574,-3.96988 -0.91412,-9.56934 -7.62777,-8.30985 -3.57423,0.67053 -5.34763,2.71733 -4.87544,5.62709 0.3804,2.34413 1.34799,3.34662 4.177,4.32769 2.23993,0.77678 6.6827,-0.10094 8.32621,-1.64493 z m -27.89291,-10.20473 c 4.22574,-3.96987 -0.91412,-9.56934 -7.62777,-8.30985 -3.57423,0.67053 -5.34763,2.71733 -4.87544,5.62709 0.3804,2.34413 1.34798,3.34662 4.17699,4.32769 2.23993,0.77678 6.68271,-0.10093 8.32622,-1.64493 z m 57.82677,-7.48346 c 4.22574,-3.96987 -0.91412,-9.56934 -7.62777,-8.30985 -3.57423,0.67053 -5.34763,2.71733 -4.87544,5.62709 0.3804,2.34412 1.34799,3.34661 4.17699,4.32769 2.23993,0.77678 6.68271,-0.10094 8.32622,-1.64493 z M 340.96937,318.26379 c 4.91961,-4.62173 -2.84063,-10.88851 -9.54423,-7.70744 -2.72278,1.29204 -3.48369,2.82761 -2.84411,5.7396 0.90045,4.09973 8.78577,5.35228 12.38834,1.96784 z m 87.11118,-0.029 c 4.22573,-3.96987 -0.91413,-9.56934 -7.62777,-8.30985 -3.57424,0.67053 -5.34763,2.71733 -4.87544,5.62709 0.3804,2.34412 1.34798,3.34662 4.17699,4.32769 2.23993,0.77678 6.68271,-0.10094 8.32622,-1.64493 z m -60.31534,-16.35783 c 1.59182,-0.98313 2.2985,-3.2415 1.72693,-5.51879 -0.95841,-3.81862 -8.97512,-4.93053 -12.39365,-1.71898 -5.35276,5.02865 3.98489,11.3646 10.66672,7.23777 z"
       id="path1288"
       transform="scale(0.26458333)" />
    <path
       style="opacity:0.5;fill:#00ffff;stroke:none;stroke-width:1.19564;stroke-linecap:round;stroke-linejoin:bevel;stroke-dasharray:9.56512, 1.19564;paint-order:fill markers stroke"
       d="m 442.20472,293.51598 c -29.55968,-10.9809 -54.6559,-20.29401 -55.76938,-20.6958 l -2.02449,-0.73053 2.62878,-1.58654 2.62879,-1.58654 8.06217,3.32749 c 20.07924,8.28729 46.12735,12.45507 93.55117,14.96847 l 15.76487,0.83552 -1.34687,3.43424 c -3.75492,9.57435 -9.10977,22.13382 -9.41,22.0706 -0.18708,-0.0394 -24.52535,-9.05601 -54.08504,-20.03691 z"
       id="path1290"
       transform="scale(0.26458333)" />
    <path
       style="opacity:0.5;fill:#00ffff;stroke:none;stroke-width:1.19564;stroke-linecap:round;stroke-linejoin:bevel;stroke-dasharray:9.56512, 1.19564;paint-order:fill markers stroke"
       d="m 413.29134,394.5428 c -8.66822,-1.07341 -14.53961,-2.30999 -14.34653,-3.02154 0.20338,-0.74953 87.98515,-58.90942 88.35493,-58.53964 0.79854,0.79854 -13.90622,27.49348 -21.94067,39.83098 -8.19478,12.58368 -14.32843,17.32061 -26.38631,20.37776 -6.27312,1.59048 -18.5417,2.23658 -25.68142,1.35244 z"
       id="path1292"
       transform="scale(0.26458333)" />
  </g>
</svg>
